<?xml version="1.0" encoding="UTF-8" standalone="no"?>
<svg
   xmlns:dc="http://purl.org/dc/elements/1.1/"
   xmlns:cc="http://creativecommons.org/ns#"
   xmlns:rdf="http://www.w3.org/1999/02/22-rdf-syntax-ns#"
   xmlns:svg="http://www.w3.org/2000/svg"
   xmlns="http://www.w3.org/2000/svg"
   xmlns:sodipodi="http://sodipodi.sourceforge.net/DTD/sodipodi-0.dtd"
   xmlns:inkscape="http://www.inkscape.org/namespaces/inkscape"
   width="1024"
   height="1024"
   viewBox="0 0 270.93333 270.93334"
   version="1.1"
   id="svg8"
   inkscape:version="1.0.2 (e86c870879, 2021-01-15)"
   sodipodi:docname="corevantage.svg"
   inkscape:export-filename="/home/jason/corevantage/icon/16x16.png"
   inkscape:export-xdpi="1.5000001"
   inkscape:export-ydpi="1.5000001">
  <defs
     id="defs2">
    <filter
       style="color-interpolation-filters:sRGB;"
       inkscape:label="Drop Shadow"
       id="filter570">
      <feColorMatrix
         type="hueRotate"
         values="180"
         result="color1"
         id="feColorMatrix566" />
      <feColorMatrix
         values="-1 0 0 0 1 0 -1 0 0 1 0 0 -1 0 1 -0.21 -0.72 -0.07 2 0 "
         result="fbSourceGraphic"
         id="feColorMatrix568" />
      <feColorMatrix
         result="fbSourceGraphicAlpha"
         in="fbSourceGraphic"
         values="0 0 0 -1 0 0 0 0 -1 0 0 0 0 -1 0 0 0 0 1 0"
         id="feColorMatrix572" />
      <feColorMatrix
         id="feColorMatrix574"
         type="hueRotate"
         values="180"
         result="color1"
         in="fbSourceGraphic" />
      <feColorMatrix
         id="feColorMatrix576"
         values="-1 0 0 0 1 0 -1 0 0 1 0 0 -1 0 1 -0.21 -0.72 -0.07 2 0 "
         result="fbSourceGraphic" />
      <feColorMatrix
         result="fbSourceGraphicAlpha"
         in="fbSourceGraphic"
         values="0 0 0 -1 0 0 0 0 -1 0 0 0 0 -1 0 0 0 0 1 0"
         id="feColorMatrix578" />
      <feColorMatrix
         id="feColorMatrix580"
         type="hueRotate"
         values="180"
         result="color1"
         in="fbSourceGraphic" />
      <feColorMatrix
         id="feColorMatrix582"
         values="-1 0 0 0 1 0 -1 0 0 1 0 0 -1 0 1 -0.21 -0.72 -0.07 2 0 "
         result="fbSourceGraphic" />
      <feColorMatrix
         result="fbSourceGraphicAlpha"
         in="fbSourceGraphic"
         values="0 0 0 -1 0 0 0 0 -1 0 0 0 0 -1 0 0 0 0 1 0"
         id="feColorMatrix12032" />
      <feFlood
         id="feFlood12034"
         flood-opacity="0.698039"
         flood-color="rgb(0,0,0)"
         result="flood"
         in="fbSourceGraphic" />
      <feComposite
         in2="fbSourceGraphic"
         id="feComposite12036"
         in="flood"
         operator="out"
         result="composite1" />
      <feGaussianBlur
         id="feGaussianBlur12038"
         in="composite1"
         stdDeviation="1.26667"
         result="blur" />
      <feOffset
         id="feOffset12040"
         dx="0.9"
         dy="1"
         result="offset" />
      <feComposite
         in2="fbSourceGraphic"
         id="feComposite12042"
         in="offset"
         operator="atop"
         result="composite2" />
    </filter>
    <filter
       style="color-interpolation-filters:sRGB;"
       inkscape:label="Bump"
       id="filter10278">
      <feGaussianBlur
         in="SourceGraphic"
         stdDeviation="1.81244"
         result="blur1"
         id="feGaussianBlur10256" />
      <feColorMatrix
         in="blur1"
         values="1 0 0 0 0 0 1 0 0 0 0 0 1 0 0 0 0 0 1 0 "
         result="colormatrix1"
         id="feColorMatrix10258" />
      <feColorMatrix
         in="colormatrix1"
         type="luminanceToAlpha"
         result="colormatrix2"
         id="feColorMatrix10260" />
      <feComposite
         in2="blur1"
         operator="arithmetic"
         k2="1"
         k3="0"
         result="composite1"
         id="feComposite10262" />
      <feGaussianBlur
         in="composite1"
         stdDeviation="2.99163"
         result="blur2"
         id="feGaussianBlur10264" />
      <feSpecularLighting
         lighting-color="rgb(255,255,255)"
         surfaceScale="10.0615"
         specularConstant="0.723763"
         specularExponent="17"
         result="lighting"
         id="feSpecularLighting10268">
        <feDistantLight
           azimuth="225"
           elevation="45"
           id="feDistantLight10266" />
      </feSpecularLighting>
      <feFlood
         flood-color="rgb(197,41,41)"
         flood-opacity="1"
         result="flood"
         id="feFlood10270" />
      <feComposite
         in="lighting"
         in2="blur1"
         operator="arithmetic"
         k3="1"
         k2="1"
         result="composite2"
         id="feComposite10272" />
      <feBlend
         in2="SourceGraphic"
         mode="normal"
         result="blend"
         id="feBlend10274" />
      <feComposite
         in="blend"
         in2="SourceGraphic"
         operator="in"
         k2="1"
         result="fbSourceGraphic"
         id="feComposite10276" />
      <feColorMatrix
         result="fbSourceGraphicAlpha"
         in="fbSourceGraphic"
         values="0 0 0 -1 0 0 0 0 -1 0 0 0 0 -1 0 0 0 0 1 0"
         id="feColorMatrix14324" />
      <feGaussianBlur
         id="feGaussianBlur14326"
         in="fbSourceGraphic"
         stdDeviation="0.276667"
         result="blur1" />
      <feColorMatrix
         id="feColorMatrix14328"
         in="blur1"
         values="1 0 0 0 0 0 1 0 0 0 0 0 1 0 0 0 0 0 1 0 "
         result="colormatrix1" />
      <feColorMatrix
         id="feColorMatrix14330"
         in="colormatrix1"
         type="luminanceToAlpha"
         result="colormatrix2" />
      <feComposite
         in2="blur1"
         id="feComposite14332"
         operator="arithmetic"
         k2="1"
         k3="-49.8667"
         result="composite1" />
      <feGaussianBlur
         id="feGaussianBlur14334"
         in="composite1"
         stdDeviation="1.27667"
         result="blur2" />
      <feSpecularLighting
         id="feSpecularLighting14336"
         lighting-color="rgb(255,255,255)"
         surfaceScale="10.0615"
         specularConstant="0.723763"
         specularExponent="17"
         result="lighting">
        <feDistantLight
           id="feDistantLight14338"
           azimuth="225"
           elevation="45" />
      </feSpecularLighting>
      <feFlood
         id="feFlood14340"
         flood-color="rgb(197,41,41)"
         flood-opacity="1"
         result="flood" />
      <feComposite
         in2="blur1"
         id="feComposite14342"
         in="lighting"
         operator="arithmetic"
         k3="1"
         k2="1"
         result="composite2" />
      <feBlend
         in2="fbSourceGraphic"
         id="feBlend14344"
         mode="normal"
         result="blend" />
      <feComposite
         in2="fbSourceGraphic"
         id="feComposite14346"
         in="blend"
         operator="in"
         k2="1"
         result="composite3" />
    </filter>
  </defs>
  <sodipodi:namedview
     id="base"
     pagecolor="#ffffff"
     bordercolor="#666666"
     borderopacity="1.0"
     inkscape:pageopacity="0.0"
     inkscape:pageshadow="2"
     inkscape:zoom="0.49497475"
     inkscape:cx="515.0771"
     inkscape:cy="543.83553"
     inkscape:document-units="mm"
     inkscape:current-layer="layer2"
     inkscape:document-rotation="0"
     showgrid="false"
     units="px"
     inkscape:window-width="1280"
     inkscape:window-height="781"
     inkscape:window-x="0"
     inkscape:window-y="19"
     inkscape:window-maximized="0" />
  <metadata
     id="metadata5">
    <rdf:RDF>
      <cc:Work
         rdf:about="">
        <dc:format>image/svg+xml</dc:format>
        <dc:type
           rdf:resource="http://purl.org/dc/dcmitype/StillImage" />
        <dc:title />
      </cc:Work>
    </rdf:RDF>
  </metadata>
  <g
     inkscape:label="Layer 1"
     inkscape:groupmode="layer"
     id="layer1" />
  <g
     inkscape:groupmode="layer"
     id="layer2"
     inkscape:label="Layer 2">
    <g
       id="g178"
       transform="matrix(1.2479945,0,0,1.2479945,-33.594982,-38.797574)">
      <circle
         style="fill:#3d43dd;fill-opacity:1;stroke-width:0.264583;filter:url(#filter10278)"
         id="path584"
         cx="135.46666"
         cy="139.63542"
         r="105.20834" />
      <g
         id="g525"
         transform="matrix(1.1645273,0,0,1.1645273,58.552898,74.021416)"
         style="fill:#003f65;fill-opacity:1;stroke-width:1.00041;stroke-miterlimit:4;stroke-dasharray:none;filter:url(#filter570)">
        <path
           d="M 116.178,40.725 C 105.602,34.44 102.521,36.625 93.025,29.054 78.2,17.237 60.247,3.794 42.62,0 c 0,0 4.307,3.492 12.283,9.822 0.559,0.465 0.705,0.684 0.595,0.867 C 55.329,10.976 54.57,10.643 54.57,10.643 48.407,8.298 41.447,6.968 36.731,7.273 35.17,7.373 34.67,7.625 34.448,8.07 c -0.104,0.209 -0.119,0.772 0.405,1.469 2.061,2.725 7.024,8.064 15.281,13.132 8.486,5.206 23.472,12.592 36.726,18.489 5.932,2.638 10.207,6.164 8.846,10.232 -1.52,4.533 -7.387,5.15 -12.074,3.275 C 79.824,53.144 76.265,48.37 70.484,41.966 60.468,30.868 55.715,26.441 39.094,29.825 30.762,31.522 22.9,38.341 16.612,45.538 12.416,50.83 10.399,55.232 9.791,60.54 c 0,0 -1.146,-2.105 -0.008,-7.49 1.989,-9.407 -2.341,-13.447 -2.341,-13.447 -21.925,31.092 9.261,59.202 33.301,32.281 0,0 -7.865,17.467 -7.21,22.906 -3.355,1.1 -4.845,4.186 0.176,7.91 5.486,4.068 18.961,3.716 29.59,-0.852 19.845,-8.529 32.213,-24.423 38.344,-34.516 1.432,-2.36 2.947,-3.508 3.996,-3.883 1.591,-0.574 12.537,0.086 17.662,-2.824 0.713,0.347 1.621,0.533 2.817,0.442 3.714,-0.282 5.976,-4.727 5.976,-4.727 0,0 -4.687,-8.941 -15.916,-15.615 z M 75.036,85.377 c -10.166,7.24 -21.192,9.26 -28.008,6.262 10.782,-7.818 30.624,-27.373 30.624,-27.373 0,0 -3.302,-8.318 -9.257,-3.225 -5.76,4.925 -11.081,11.078 -13.184,13.043 -1.301,1.213 -3.508,3.506 -4.812,2.52 -1.587,-1.199 3.137,-11.825 6.749,-20.631 4.928,-12.01 -0.742,-15.762 -7.379,-15.429 -5.947,0.299 -14.071,3.903 -19.891,7.462 -1.648,1.009 -2.773,1.629 -3.189,1.244 -0.364,-0.339 0.021,-0.977 1.102,-1.89 15.471,-13.108 37.549,-12.767 39.523,-3.175 1.571,7.65 -14.771,26.914 -13.697,27.223 0.104,0.029 0.338,-0.088 0.68,-0.322 5.364,-7.021 15.521,-17.801 19.331,-17.384 6.827,0.746 9.183,9.794 9.183,9.794 L 60.05,84.034 c 4.701,1.277 9.842,1.738 14.986,1.343 z"
           id="path523"
           style="fill:#003f65;fill-opacity:1;stroke-width:1.00041;stroke-miterlimit:4;stroke-dasharray:none" />
      </g>
    </g>
  </g>
</svg>
